stateDiagram
		AppEntry.js --> app.js
		AppEntry.js --> components/router/index.js
		AppEntry.js --> redux/index.js
		AppEntry.js --> styles/index.scss
		app.js --> components/authentication/authentication.js
		app.js --> components/i18n/i18n.js
		app.js --> components/router/index.js
		app.js --> redux/index.js
		bootstrap.js --> AppEntry.js
		common/dateHelpers.js --> common/helpers.js
		common/dateHelpers.js --> components/i18n/i18n.js
		common/dateHelpers.js --> types/rhsmApiTypes.js
		common/downloadHelpers.js --> common/dateHelpers.js
		common/downloadHelpers.js --> common/helpers.js
		common/index.js --> common/dateHelpers.js
		common/index.js --> common/downloadHelpers.js
		common/index.js --> common/helpers.js
		components/authentication/authentication.js --> common/index.js
		components/authentication/authentication.js --> components/i18n/i18n.js
		components/authentication/authentication.js --> components/messageView/messageView.js
		components/authentication/authentication.js --> components/router/index.js
		components/authentication/authentication.js --> hooks/useRouter.js
		components/authentication/authentication.js --> redux/index.js
		components/authentication/authentication.js --> types/index.js
		components/bannerMessages/bannerMessages.js --> common/index.js
		components/bannerMessages/bannerMessages.js --> components/i18n/i18n.js
		components/bannerMessages/bannerMessages.js --> hooks/useRouter.js
		components/bannerMessages/bannerMessages.js --> redux/index.js
		components/bannerMessages/bannerMessages.js --> types/rhsmApiTypes.js
		components/chart/chart.js --> components/chart/chartContext.js
		components/chart/chart.js --> components/chart/chartElements.js
		components/chart/chart.js --> components/chart/chartHelpers.js
		components/chart/chart.js --> components/chart/chartLegend.js
		components/chart/chart.js --> hooks/useWindow.js
		components/chart/chartContext.js --> common/index.js
		components/chart/chartElements.js --> components/chart/chartAxisLabel.js
		components/chart/chartElements.js --> components/chart/chartContext.js
		components/chart/chartElements.js --> components/chart/chartTooltip.js
		components/chart/chartHelpers.js --> common/index.js
		components/chart/chartLegend.js --> components/chart/chartContext.js
		components/chart/chartTooltip.js --> common/index.js
		components/form/checkbox.js --> common/index.js
		components/form/checkbox.js --> components/form/formHelpers.js
		components/form/formHelpers.js --> common/helpers.js
		components/form/formState.js --> common/helpers.js
		components/form/select.js --> common/helpers.js
		components/form/textInput.js --> common/index.js
		components/form/textInput.js --> components/form/formHelpers.js
		components/graphCard/graphCard.deprecated.js --> common/index.js
		components/graphCard/graphCard.deprecated.js --> components/graphCard/graphCardChart.deprecated.js
		components/graphCard/graphCard.deprecated.js --> components/loader/loader.js
		components/graphCard/graphCard.deprecated.js --> components/minHeight/minHeight.js
		components/graphCard/graphCard.deprecated.js --> components/productView/productViewContext.js
		components/graphCard/graphCard.deprecated.js --> redux/index.js
		components/graphCard/graphCard.deprecated.js --> types/rhsmApiTypes.js
		components/graphCard/graphCard.js --> common/index.js
		components/graphCard/graphCard.js --> components/graphCard/graphCardHelpers.js
		components/graphCard/graphCard.js --> components/graphCard/graphCardMetric.js
		components/graphCard/graphCard.js --> components/graphCard/graphCardMetrics.js
		components/graphCard/graphCard.js --> components/productView/productViewContext.js
		components/graphCard/graphCardChart.deprecated.js --> components/chart/chart.js
		components/graphCard/graphCardChart.deprecated.js --> components/graphCard/graphCardChartLegend.js
		components/graphCard/graphCardChart.deprecated.js --> components/graphCard/graphCardChartTooltip.js
		components/graphCard/graphCardChart.deprecated.js --> components/graphCard/graphCardHelpers.js
		components/graphCard/graphCardChart.deprecated.js --> components/productView/productViewContext.js
		components/graphCard/graphCardChart.deprecated.js --> types/rhsmApiTypes.js
		components/graphCard/graphCardChart.js --> components/chart/chart.js
		components/graphCard/graphCardChart.js --> components/graphCard/graphCardChartLegend.js
		components/graphCard/graphCardChart.js --> components/graphCard/graphCardChartTitleTooltip.js
		components/graphCard/graphCardChart.js --> components/graphCard/graphCardChartTooltip.js
		components/graphCard/graphCardChart.js --> components/graphCard/graphCardContext.js
		components/graphCard/graphCardChart.js --> components/graphCard/graphCardHelpers.js
		components/graphCard/graphCardChart.js --> components/i18n/i18n.js
		components/graphCard/graphCardChart.js --> components/loader/loader.js
		components/graphCard/graphCardChart.js --> components/minHeight/minHeight.js
		components/graphCard/graphCardChart.js --> components/productView/productViewContext.js
		components/graphCard/graphCardChart.js --> services/rhsm/rhsmConstants.js
		components/graphCard/graphCardChartLegend.js --> common/index.js
		components/graphCard/graphCardChartLegend.js --> components/chart/chartIcon.js
		components/graphCard/graphCardChartLegend.js --> components/i18n/i18n.js
		components/graphCard/graphCardChartLegend.js --> components/productView/productViewContext.js
		components/graphCard/graphCardChartLegend.js --> redux/index.js
		components/graphCard/graphCardChartTitleTooltip.js --> components/graphCard/graphCardContext.js
		components/graphCard/graphCardChartTitleTooltip.js --> components/i18n/i18n.js
		components/graphCard/graphCardChartTitleTooltip.js --> components/productView/productViewContext.js
		components/graphCard/graphCardChartTooltip.js --> common/index.js
		components/graphCard/graphCardChartTooltip.js --> components/chart/chartIcon.js
		components/graphCard/graphCardChartTooltip.js --> components/graphCard/graphCardHelpers.js
		components/graphCard/graphCardChartTooltip.js --> components/i18n/i18n.js
		components/graphCard/graphCardChartTooltip.js --> components/productView/productViewContext.js
		components/graphCard/graphCardChartTooltip.js --> services/rhsm/rhsmConstants.js
		components/graphCard/graphCardContext.js --> common/helpers.js
		components/graphCard/graphCardContext.js --> components/productView/productViewContext.js
		components/graphCard/graphCardContext.js --> redux/index.js
		components/graphCard/graphCardHelpers.js --> common/index.js
		components/graphCard/graphCardHelpers.js --> types/rhsmApiTypes.js
		components/graphCard/graphCardMetric.js --> components/graphCard/graphCardChart.js
		components/graphCard/graphCardMetric.js --> components/graphCard/graphCardContext.js
		components/graphCard/graphCardMetric.js --> components/graphCard/graphCardMetricTotals.js
		components/graphCard/graphCardMetric.js --> components/productView/productViewContext.js
		components/graphCard/graphCardMetric.js --> services/rhsm/rhsmConstants.js
		components/graphCard/graphCardMetricTotals.js --> common/index.js
		components/graphCard/graphCardMetricTotals.js --> components/graphCard/graphCardContext.js
		components/graphCard/graphCardMetricTotals.js --> components/i18n/i18n.js
		components/graphCard/graphCardMetricTotals.js --> components/loader/loader.js
		components/graphCard/graphCardMetricTotals.js --> components/minHeight/minHeight.js
		components/graphCard/graphCardMetricTotals.js --> components/productView/productViewContext.js
		components/graphCard/graphCardMetricTotals.js --> components/toolbar/toolbarFieldRangedMonthly.js
		components/graphCard/graphCardMetricTotals.js --> services/rhsm/rhsmConstants.js
		components/graphCard/graphCardMetrics.js --> components/graphCard/graphCardChart.js
		components/graphCard/graphCardMetrics.js --> components/graphCard/graphCardContext.js
		components/graphCard/graphCardMetrics.js --> components/productView/productViewContext.js
		components/graphCard/graphCardMetrics.js --> services/rhsm/rhsmConstants.js
		components/i18n/i18n.js --> common/helpers.js
		components/inventoryCard/inventoryCard.js --> common/index.js
		components/inventoryCard/inventoryCard.js --> components/i18n/i18n.js
		components/inventoryCard/inventoryCard.js --> components/inventoryCard/inventoryCardContext.js
		components/inventoryCard/inventoryCard.js --> components/inventoryCard/inventoryCardHelpers.js
		components/inventoryCard/inventoryCard.js --> components/inventoryGuests/inventoryGuests.js
		components/inventoryCard/inventoryCard.js --> components/loader/loader.js
		components/inventoryCard/inventoryCard.js --> components/minHeight/minHeight.js
		components/inventoryCard/inventoryCard.js --> components/pagination/pagination.js
		components/inventoryCard/inventoryCard.js --> components/pagination/paginationHelpers.js
		components/inventoryCard/inventoryCard.js --> components/productView/productViewContext.js
		components/inventoryCard/inventoryCard.js --> components/table/table.js
		components/inventoryCard/inventoryCard.js --> components/toolbar/toolbarFieldDisplayName.js
		components/inventoryCard/inventoryCard.js --> redux/index.js
		components/inventoryCard/inventoryCard.js --> services/rhsm/rhsmConstants.js
		components/inventoryCard/inventoryCardContext.js --> common/index.js
		components/inventoryCard/inventoryCardContext.js --> components/productView/productViewContext.js
		components/inventoryCard/inventoryCardContext.js --> redux/index.js
		components/inventoryCard/inventoryCardContext.js --> services/rhsm/rhsmConstants.js
		components/inventoryCard/inventoryCardHelpers.js --> common/index.js
		components/inventoryCard/inventoryCardHelpers.js --> components/i18n/i18n.js
		components/inventoryCard/inventoryCardHelpers.js --> components/tooltip/tooltip.js
		components/inventoryCard/inventoryCardHelpers.js --> types/rhsmApiTypes.js
		components/inventoryCard/inventoryList.deprecated.js --> common/index.js
		components/inventoryCard/inventoryList.deprecated.js --> components/i18n/i18n.js
		components/inventoryCard/inventoryList.deprecated.js --> components/inventoryCard/inventoryCardHelpers.js
		components/inventoryCard/inventoryList.deprecated.js --> components/inventoryGuests/guestsList.deprecated.js
		components/inventoryCard/inventoryList.deprecated.js --> components/loader/loader.js
		components/inventoryCard/inventoryList.deprecated.js --> components/minHeight/minHeight.js
		components/inventoryCard/inventoryList.deprecated.js --> components/pagination/pagination.js
		components/inventoryCard/inventoryList.deprecated.js --> components/pagination/paginationHelpers.js
		components/inventoryCard/inventoryList.deprecated.js --> components/table/table.js
		components/inventoryCard/inventoryList.deprecated.js --> components/toolbar/toolbarFieldDisplayName.js
		components/inventoryCard/inventoryList.deprecated.js --> redux/index.js
		components/inventoryCard/inventoryList.deprecated.js --> types/rhsmApiTypes.js
		components/inventoryCardSubscriptions/inventoryCardSubscriptions.js --> common/index.js
		components/inventoryCardSubscriptions/inventoryCardSubscriptions.js --> components/inventoryCard/inventoryCard.js
		components/inventoryCardSubscriptions/inventoryCardSubscriptions.js --> components/inventoryCardSubscriptions/inventoryCardSubscriptionsContext.js
		components/inventoryCardSubscriptions/inventoryCardSubscriptions.js --> components/productView/productViewContext.js
		components/inventoryCardSubscriptions/inventoryCardSubscriptionsContext.js --> common/index.js
		components/inventoryCardSubscriptions/inventoryCardSubscriptionsContext.js --> components/productView/productViewContext.js
		components/inventoryCardSubscriptions/inventoryCardSubscriptionsContext.js --> redux/index.js
		components/inventoryCardSubscriptions/inventoryCardSubscriptionsContext.js --> services/rhsm/rhsmConstants.js
		components/inventoryGuests/guestsList.deprecated.js --> common/index.js
		components/inventoryGuests/guestsList.deprecated.js --> components/inventoryCard/inventoryCardHelpers.js
		components/inventoryGuests/guestsList.deprecated.js --> components/loader/loader.js
		components/inventoryGuests/guestsList.deprecated.js --> components/table/table.js
		components/inventoryGuests/guestsList.deprecated.js --> redux/index.js
		components/inventoryGuests/guestsList.deprecated.js --> types/rhsmApiTypes.js
		components/inventoryGuests/inventoryGuests.js --> components/inventoryCard/inventoryCardHelpers.js
		components/inventoryGuests/inventoryGuests.js --> components/inventoryGuests/inventoryGuestsContext.js
		components/inventoryGuests/inventoryGuests.js --> components/loader/loader.js
		components/inventoryGuests/inventoryGuests.js --> components/productView/productViewContext.js
		components/inventoryGuests/inventoryGuests.js --> components/table/table.js
		components/inventoryGuests/inventoryGuests.js --> redux/index.js
		components/inventoryGuests/inventoryGuests.js --> services/rhsm/rhsmConstants.js
		components/inventoryGuests/inventoryGuestsContext.js --> components/productView/productViewContext.js
		components/inventoryGuests/inventoryGuestsContext.js --> redux/index.js
		components/inventoryGuests/inventoryGuestsContext.js --> services/rhsm/rhsmConstants.js
		components/inventoryTabs/inventoryTabs.js --> common/index.js
		components/inventoryTabs/inventoryTabs.js --> components/i18n/i18n.js
		components/inventoryTabs/inventoryTabs.js --> components/inventoryTabs/inventoryTab.js
		components/inventoryTabs/inventoryTabs.js --> components/tabs/tabs.js
		components/inventoryTabs/inventoryTabs.js --> redux/index.js
		components/loader/loader.js --> components/pageLayout/pageLayout.js
		components/loader/loader.js --> components/table/tableSkeleton.js
		components/messageView/messageView.js --> common/index.js
		components/messageView/messageView.js --> components/pageLayout/pageLayout.js
		components/minHeight/minHeight.js --> common/index.js
		components/optinView/optinView.js --> common/index.js
		components/optinView/optinView.js --> components/i18n/i18n.js
		components/optinView/optinView.js --> components/pageLayout/pageLayout.js
		components/optinView/optinView.js --> images/graph2x.png
		components/optinView/optinView.js --> images/graph4x.png
		components/optinView/optinView.js --> redux/index.js
		components/pageLayout/pageColumns.js --> common/index.js
		components/pageLayout/pageHeader.js --> common/index.js
		components/pageLayout/pageHeader.js --> components/i18n/i18n.js
		components/pageLayout/pageLayout.js --> components/pageLayout/pageColumns.js
		components/pageLayout/pageLayout.js --> components/pageLayout/pageHeader.js
		components/pageLayout/pageLayout.js --> components/pageLayout/pageMessages.js
		components/pageLayout/pageLayout.js --> components/pageLayout/pageSection.js
		components/pageLayout/pageLayout.js --> components/pageLayout/pageToolbar.js
		components/pagination/pagination.js --> common/index.js
		components/pagination/pagination.js --> components/pagination/paginationHelpers.js
		components/productView/productView.js --> common/index.js
		components/productView/productView.js --> components/bannerMessages/bannerMessages.js
		components/productView/productView.js --> components/form/select.js
		components/productView/productView.js --> components/graphCard/graphCard.deprecated.js
		components/productView/productView.js --> components/graphCard/graphCard.js
		components/productView/productView.js --> components/i18n/i18n.js
		components/productView/productView.js --> components/inventoryCard/inventoryCard.js
		components/productView/productView.js --> components/inventoryCard/inventoryList.deprecated.js
		components/productView/productView.js --> components/inventoryCardSubscriptions/inventoryCardSubscriptions.js
		components/productView/productView.js --> components/inventoryTabs/inventoryTabs.js
		components/productView/productView.js --> components/pageLayout/pageLayout.js
		components/productView/productView.js --> components/productView/productViewContext.js
		components/productView/productView.js --> components/toolbar/toolbar.js
		components/productView/productView.js --> components/toolbar/toolbarFieldGranularity.js
		components/productView/productView.js --> hooks/useRouter.js
		components/productView/productView.js --> redux/index.js
		components/productView/productView.js --> services/rhsm/rhsmConstants.js
		components/productView/productViewContext.js --> common/helpers.js
		components/productView/productViewContext.js --> redux/common/index.js
		components/productView/productViewContext.js --> redux/hooks/index.js
		components/productView/productViewContext.js --> services/rhsm/rhsmConstants.js
		components/productView/productViewContext.js --> types/rhsmApiTypes.js
		components/productView/productViewMissing.js --> common/index.js
		components/productView/productViewMissing.js --> components/i18n/i18n.js
		components/productView/productViewMissing.js --> components/pageLayout/pageLayout.js
		components/productView/productViewMissing.js --> components/router/index.js
		components/productView/productViewMissing.js --> hooks/useRouter.js
		components/productView/productViewOpenShiftContainer.js --> common/index.js
		components/productView/productViewOpenShiftContainer.js --> components/form/select.js
		components/productView/productViewOpenShiftContainer.js --> components/graphCard/graphCard.deprecated.js
		components/productView/productViewOpenShiftContainer.js --> components/i18n/i18n.js
		components/productView/productViewOpenShiftContainer.js --> components/inventoryCard/inventoryList.deprecated.js
		components/productView/productViewOpenShiftContainer.js --> components/inventoryCardSubscriptions/inventoryCardSubscriptions.js
		components/productView/productViewOpenShiftContainer.js --> components/inventoryTabs/inventoryTabs.js
		components/productView/productViewOpenShiftContainer.js --> components/pageLayout/pageLayout.js
		components/productView/productViewOpenShiftContainer.js --> components/productView/productViewContext.js
		components/productView/productViewOpenShiftContainer.js --> components/toolbar/toolbar.js
		components/productView/productViewOpenShiftContainer.js --> components/toolbar/toolbarFieldGranularity.js
		components/productView/productViewOpenShiftContainer.js --> components/toolbar/toolbarFieldRangedMonthly.js
		components/productView/productViewOpenShiftContainer.js --> components/toolbar/toolbarFieldUom.js
		components/productView/productViewOpenShiftContainer.js --> hooks/useRouter.js
		components/productView/productViewOpenShiftContainer.js --> redux/index.js
		components/productView/productViewOpenShiftContainer.js --> types/rhsmApiTypes.js
		components/productView/productViewOpenShiftDedicated.js --> components/form/select.js
		components/productView/productViewOpenShiftDedicated.js --> components/productView/productView.js
		components/productView/productViewOpenShiftDedicated.js --> components/toolbar/toolbarFieldRangedMonthly.js
		components/router/index.js --> components/router/redirect.js
		components/router/index.js --> components/router/router.js
		components/router/index.js --> components/router/routerHelpers.js
		components/router/redirect.js --> common/index.js
		components/router/redirect.js --> components/router/router.js
		components/router/redirect.js --> components/router/routerHelpers.js
		components/router/router.js --> components/loader/loader.js
		components/router/router.js --> components/router/routerContext.js
		components/router/router.js --> components/router/routerHelpers.js
		components/router/routerContext.js --> common/helpers.js
		components/router/routerHelpers.js --> common/helpers.js
		components/router/routerHelpers.js --> config/index.js
		components/table/table.js --> common/index.js
		components/table/table.js --> components/i18n/i18n.js
		components/table/table.js --> components/table/tableEmpty.js
		components/table/tableSkeleton.js --> components/i18n/i18n.js
		components/table/tableSkeleton.js --> components/table/table.js
		components/tabs/tabs.js --> common/index.js
		components/toolbar/toolbar.js --> common/index.js
		components/toolbar/toolbar.js --> components/i18n/i18n.js
		components/toolbar/toolbar.js --> components/toolbar/toolbarContext.js
		components/toolbar/toolbar.js --> components/toolbar/toolbarFieldSelectCategory.js
		components/toolbar/toolbarContext.js --> components/productView/productViewContext.js
		components/toolbar/toolbarContext.js --> components/toolbar/toolbarFieldSelectCategory.js
		components/toolbar/toolbarContext.js --> components/toolbar/toolbarFieldSla.js
		components/toolbar/toolbarContext.js --> components/toolbar/toolbarFieldUsage.js
		components/toolbar/toolbarContext.js --> types/rhsmApiTypes.js
		components/toolbar/toolbarFieldDisplayName.js --> components/form/textInput.js
		components/toolbar/toolbarFieldDisplayName.js --> components/i18n/i18n.js
		components/toolbar/toolbarFieldDisplayName.js --> components/productView/productViewContext.js
		components/toolbar/toolbarFieldDisplayName.js --> redux/index.js
		components/toolbar/toolbarFieldDisplayName.js --> types/rhsmApiTypes.js
		components/toolbar/toolbarFieldGranularity.js --> common/index.js
		components/toolbar/toolbarFieldGranularity.js --> components/form/select.js
		components/toolbar/toolbarFieldGranularity.js --> components/i18n/i18n.js
		components/toolbar/toolbarFieldGranularity.js --> components/productView/productViewContext.js
		components/toolbar/toolbarFieldGranularity.js --> redux/index.js
		components/toolbar/toolbarFieldGranularity.js --> types/rhsmApiTypes.js
		components/toolbar/toolbarFieldRangedMonthly.js --> common/index.js
		components/toolbar/toolbarFieldRangedMonthly.js --> components/form/select.js
		components/toolbar/toolbarFieldRangedMonthly.js --> components/i18n/i18n.js
		components/toolbar/toolbarFieldRangedMonthly.js --> components/productView/productViewContext.js
		components/toolbar/toolbarFieldRangedMonthly.js --> redux/index.js
		components/toolbar/toolbarFieldRangedMonthly.js --> types/rhsmApiTypes.js
		components/toolbar/toolbarFieldSelectCategory.js --> components/form/select.js
		components/toolbar/toolbarFieldSelectCategory.js --> components/i18n/i18n.js
		components/toolbar/toolbarFieldSelectCategory.js --> components/productView/productViewContext.js
		components/toolbar/toolbarFieldSelectCategory.js --> components/toolbar/toolbarFieldGranularity.js
		components/toolbar/toolbarFieldSelectCategory.js --> components/toolbar/toolbarFieldRangedMonthly.js
		components/toolbar/toolbarFieldSelectCategory.js --> components/toolbar/toolbarFieldSla.js
		components/toolbar/toolbarFieldSelectCategory.js --> components/toolbar/toolbarFieldUom.js
		components/toolbar/toolbarFieldSelectCategory.js --> components/toolbar/toolbarFieldUsage.js
		components/toolbar/toolbarFieldSelectCategory.js --> redux/index.js
		components/toolbar/toolbarFieldSelectCategory.js --> types/rhsmApiTypes.js
		components/toolbar/toolbarFieldSla.js --> components/form/select.js
		components/toolbar/toolbarFieldSla.js --> components/i18n/i18n.js
		components/toolbar/toolbarFieldSla.js --> components/productView/productViewContext.js
		components/toolbar/toolbarFieldSla.js --> redux/index.js
		components/toolbar/toolbarFieldSla.js --> types/rhsmApiTypes.js
		components/toolbar/toolbarFieldUom.js --> components/form/select.js
		components/toolbar/toolbarFieldUom.js --> components/i18n/i18n.js
		components/toolbar/toolbarFieldUom.js --> components/productView/productViewContext.js
		components/toolbar/toolbarFieldUom.js --> redux/index.js
		components/toolbar/toolbarFieldUom.js --> types/rhsmApiTypes.js
		components/toolbar/toolbarFieldUsage.js --> components/form/select.js
		components/toolbar/toolbarFieldUsage.js --> components/i18n/i18n.js
		components/toolbar/toolbarFieldUsage.js --> components/productView/productViewContext.js
		components/toolbar/toolbarFieldUsage.js --> redux/index.js
		components/toolbar/toolbarFieldUsage.js --> types/rhsmApiTypes.js
		config/index.js --> config/product.openshiftContainer.js
		config/index.js --> config/product.openshiftDedicated.js
		config/index.js --> config/product.openshiftMetrics.js
		config/index.js --> config/product.rhel.js
		config/index.js --> config/product.rhosak.js
		config/index.js --> config/product.satellite.js
		config/index.js --> config/rbac.json
		config/index.js --> config/routes.js
		config/product.openshiftContainer.js --> common/index.js
		config/product.openshiftContainer.js --> components/i18n/i18n.js
		config/product.openshiftContainer.js --> types/rhsmApiTypes.js
		config/product.openshiftDedicated.js --> common/index.js
		config/product.openshiftDedicated.js --> components/i18n/i18n.js
		config/product.openshiftDedicated.js --> types/rhsmApiTypes.js
		config/product.openshiftMetrics.js --> common/index.js
		config/product.openshiftMetrics.js --> components/i18n/i18n.js
		config/product.openshiftMetrics.js --> types/rhsmApiTypes.js
		config/product.rhel.js --> common/index.js
		config/product.rhel.js --> components/i18n/i18n.js
		config/product.rhel.js --> types/rhsmApiTypes.js
		config/product.rhosak.js --> common/index.js
		config/product.rhosak.js --> components/i18n/i18n.js
		config/product.rhosak.js --> services/rhsm/rhsmConstants.js
		config/product.rhosak.js --> types/rhsmApiTypes.js
		config/product.satellite.js --> common/index.js
		config/product.satellite.js --> components/i18n/i18n.js
		config/product.satellite.js --> types/rhsmApiTypes.js
		config/routes.js --> common/index.js
		config/routes.js --> config/product.openshiftContainer.js
		config/routes.js --> config/product.openshiftDedicated.js
		config/routes.js --> config/product.openshiftMetrics.js
		config/routes.js --> config/product.rhel.js
		config/routes.js --> config/product.rhosak.js
		config/routes.js --> config/product.satellite.js
		config/routes.js --> types/rhsmApiTypes.js
		entry.js --> bootstrap.js
		hooks/useRouter.js --> components/router/routerContext.js
		hooks/useRouter.js --> components/router/routerHelpers.js
		hooks/useRouter.js --> redux/index.js
		hooks/useWindow.js --> common/index.js
		redux/actions/index.js --> redux/actions/platformActions.js
		redux/actions/index.js --> redux/actions/rhsmActions.js
		redux/actions/index.js --> redux/actions/userActions.js
		redux/actions/platformActions.js --> redux/types/index.js
		redux/actions/platformActions.js --> services/platformServices.js
		redux/actions/rhsmActions.js --> redux/types/index.js
		redux/actions/rhsmActions.js --> services/rhsm/rhsmServices.js
		redux/actions/userActions.js --> common/helpers.js
		redux/actions/userActions.js --> components/i18n/i18n.js
		redux/actions/userActions.js --> redux/types/index.js
		redux/actions/userActions.js --> services/userServices.js
		redux/common/apiQueries.js --> redux/common/reduxHelpers.js
		redux/common/apiQueries.js --> types/rhsmApiTypes.js
		redux/common/index.js --> redux/common/apiQueries.js
		redux/common/index.js --> redux/common/reduxHelpers.js
		redux/common/reduxHelpers.js --> common/index.js
		redux/hooks/index.js --> redux/hooks/useReactRedux.js
		redux/hooks/index.js --> redux/hooks/useRhsmActions.js
		redux/hooks/index.js --> redux/hooks/useRhsmSelectors.js
		redux/hooks/useReactRedux.js --> redux/store.js
		redux/hooks/useRhsmActions.js --> redux/hooks/useReactRedux.js
		redux/hooks/useRhsmActions.js --> redux/types/rhsmTypes.js
		redux/hooks/useRhsmActions.js --> services/rhsm/rhsmServices.js
		redux/hooks/useRhsmSelectors.js --> components/router/routerContext.js
		redux/hooks/useRhsmSelectors.js --> redux/selectors/index.js
		redux/index.js --> redux/actions/index.js
		redux/index.js --> redux/common/index.js
		redux/index.js --> redux/hooks/index.js
		redux/index.js --> redux/reducers/index.js
		redux/index.js --> redux/selectors/index.js
		redux/index.js --> redux/store.js
		redux/index.js --> redux/types/index.js
		redux/middleware/actionRecordMiddleware.js --> types/index.js
		redux/middleware/index.js --> redux/common/reduxHelpers.js
		redux/middleware/index.js --> redux/middleware/actionRecordMiddleware.js
		redux/middleware/index.js --> redux/middleware/multiActionMiddleware.js
		redux/middleware/index.js --> redux/middleware/statusMiddleware.js
		redux/middleware/statusMiddleware.js --> redux/common/reduxHelpers.js
		redux/reducers/graphReducer.js --> redux/common/reduxHelpers.js
		redux/reducers/graphReducer.js --> redux/types/index.js
		redux/reducers/index.js --> redux/index.js
		redux/reducers/index.js --> redux/reducers/graphReducer.js
		redux/reducers/index.js --> redux/reducers/inventoryReducer.js
		redux/reducers/index.js --> redux/reducers/messagesReducer.js
		redux/reducers/index.js --> redux/reducers/toolbarReducer.js
		redux/reducers/index.js --> redux/reducers/userReducer.js
		redux/reducers/index.js --> redux/reducers/viewReducer.js
		redux/reducers/inventoryReducer.js --> redux/common/reduxHelpers.js
		redux/reducers/inventoryReducer.js --> redux/types/index.js
		redux/reducers/inventoryReducer.js --> redux/types/rhsmTypes.js
		redux/reducers/messagesReducer.js --> redux/common/reduxHelpers.js
		redux/reducers/messagesReducer.js --> redux/types/index.js
		redux/reducers/toolbarReducer.js --> redux/common/reduxHelpers.js
		redux/reducers/toolbarReducer.js --> redux/types/index.js
		redux/reducers/userReducer.js --> redux/common/reduxHelpers.js
		redux/reducers/userReducer.js --> redux/types/index.js
		redux/reducers/userReducer.js --> types/rhsmApiTypes.js
		redux/reducers/viewReducer.js --> components/router/index.js
		redux/reducers/viewReducer.js --> redux/common/reduxHelpers.js
		redux/reducers/viewReducer.js --> redux/types/index.js
		redux/reducers/viewReducer.js --> types/rhsmApiTypes.js
		redux/selectors/appMessagesSelectors.js --> types/index.js
		redux/selectors/graphCardSelectors.js --> redux/common/index.js
		redux/selectors/graphCardSelectors.js --> redux/common/reduxHelpers.js
		redux/selectors/graphCardSelectors.js --> types/rhsmApiTypes.js
		redux/selectors/guestsListSelectors.js --> redux/common/reduxHelpers.js
		redux/selectors/guestsListSelectors.js --> redux/selectors/userSelectors.js
		redux/selectors/guestsListSelectors.js --> types/rhsmApiTypes.js
		redux/selectors/index.js --> redux/selectors/appMessagesSelectors.js
		redux/selectors/index.js --> redux/selectors/graphCardSelectors.js
		redux/selectors/index.js --> redux/selectors/guestsListSelectors.js
		redux/selectors/index.js --> redux/selectors/inventoryListSelectors.js
		redux/selectors/index.js --> redux/selectors/userSelectors.js
		redux/selectors/inventoryListSelectors.js --> redux/common/index.js
		redux/selectors/inventoryListSelectors.js --> redux/common/reduxHelpers.js
		redux/selectors/inventoryListSelectors.js --> redux/selectors/userSelectors.js
		redux/selectors/inventoryListSelectors.js --> types/rhsmApiTypes.js
		redux/selectors/userSelectors.js --> config/index.js
		redux/selectors/userSelectors.js --> types/platformApiTypes.js
		redux/store.js --> redux/index.js
		redux/store.js --> redux/middleware/index.js
		redux/store.js --> redux/reducers/index.js
		redux/types/index.js --> redux/types/appTypes.js
		redux/types/index.js --> redux/types/graphTypes.js
		redux/types/index.js --> redux/types/inventoryTypes.js
		redux/types/index.js --> redux/types/platformTypes.js
		redux/types/index.js --> redux/types/queryTypes.js
		redux/types/index.js --> redux/types/rhsmTypes.js
		redux/types/index.js --> redux/types/toolbarTypes.js
		redux/types/index.js --> redux/types/userTypes.js
		redux/types/queryTypes.js --> types/rhsmApiTypes.js
		services/common/helpers.js --> common/index.js
		services/config.js --> services/common/helpers.js
		services/config.js --> services/platformServices.js
		services/platformServices.js --> common/index.js
		services/platformServices.js --> types/platformApiTypes.js
		services/rhsm/rhsmSchemas.js --> services/common/helpers.js
		services/rhsm/rhsmSchemas.js --> services/rhsm/rhsmConstants.js
		services/rhsm/rhsmServices.js --> common/index.js
		services/rhsm/rhsmServices.js --> services/config.js
		services/rhsm/rhsmServices.js --> services/rhsm/rhsmSchemas.js
		services/rhsm/rhsmServices.js --> services/rhsm/rhsmTranformers.js
		services/rhsm/rhsmTranformers.js --> common/index.js
		services/rhsm/rhsmTranformers.js --> services/rhsm/rhsmConstants.js
		services/userServices.js --> common/index.js
		services/userServices.js --> config/index.js
		services/userServices.js --> services/config.js
		services/userServices.js --> services/platformServices.js
		styles/index.scss --> styles/_banner-messages.scss
		styles/index.scss --> styles/_fade.scss
		styles/index.scss --> styles/_form.scss
		styles/index.scss --> styles/_icons.scss
		styles/index.scss --> styles/_inventory-list.scss
		styles/index.scss --> styles/_optin.scss
		styles/index.scss --> styles/_page-layout.scss
		styles/index.scss --> styles/_product-view.scss
		styles/index.scss --> styles/_skeleton.scss
		styles/index.scss --> styles/_table.scss
		styles/index.scss --> styles/_tabs.scss
		styles/index.scss --> styles/_toolbar.scss
		styles/index.scss --> styles/_tooltip.scss
		styles/index.scss --> styles/_usage-graph.scss
		types/index.js --> types/platformApiTypes.js
		types/index.js --> types/rhsmApiTypes.js
		types/rhsmApiTypes.js --> services/rhsm/rhsmConstants.js
